# This file uses meters as units for non-parametric coordinates.

mtllib khbn.mtl
g default
v -55.639107 270.724518 6.967357
v 0.000000 215.085419 6.967357
v 0.000000 326.363617 6.967357
v 55.639107 270.724518 6.967357
v 0.000000 326.363617 3.860842
v 55.639107 270.724518 3.860842
v -55.639107 270.724518 3.860842
v 0.000000 215.085419 3.860842
v -4.448120 -2.047279 0.765320
v -3.974121 -2.047279 2.244202
v -3.974121 288.421600 2.244202
v -4.448120 288.421600 0.765320
v -3.025940 -2.047279 3.192383
v -1.522522 -2.047279 3.666382
v -1.522522 288.421600 3.666382
v -3.025940 288.421600 3.192383
v 0.211853 -2.047279 3.666382
v 1.715271 -2.047279 3.192383
v 1.715271 288.421600 3.192383
v 0.211853 288.421600 3.666382
v 2.663452 -2.047279 2.244202
v 3.137451 -2.047279 0.765320
v 3.137451 288.421600 0.765320
v 2.663452 288.421600 2.244202
v -4.448120 288.421600 -1.018127
v -3.974121 288.421600 -2.497009
v -3.974121 -2.047279 -2.497009
v -4.448120 -2.047279 -1.018127
v -3.025940 288.421600 -3.445190
v -1.522522 288.421600 -3.919189
v -1.522522 -2.047279 -3.919189
v -3.025940 -2.047279 -3.445190
v 0.211853 288.421600 -3.919189
v 1.715271 288.421600 -3.445190
v 1.715271 -2.047279 -3.445190
v 0.211853 -2.047279 -3.919189
v 2.663452 288.421600 -2.497009
v 3.137451 288.421600 -1.018127
v 3.137451 -2.047279 -1.018127
v 2.663452 -2.047279 -2.497009
vt 0.437044 0.720616
vt 0.692734 0.469268
vt 0.954181 0.721538
vt 0.691780 0.979661
vt 0.422323 0.721394
vt 0.162882 0.462827
vt 0.421448 0.203385
vt 0.680890 0.461952
vt 0.836376 0.161048
vt 0.923796 0.161048
vt 0.923796 0.248468
vt 0.836376 0.248468
vt 0.923796 0.423308
vt 0.836376 0.423308
vt 0.836376 0.335888
vt 0.923796 0.335888
vt 0.923796 0.073628
vt 0.836376 0.073628
vt 0.025921 0.998008
vt 0.025921 0.001992
vt 0.031868 0.001992
vt 0.031868 0.998008
vt 0.070886 0.001992
vt 0.070886 0.998008
vt 0.064939 0.998008
vt 0.064939 0.001992
vt 0.045346 0.998008
vt 0.045346 0.001992
vt 0.051461 0.001992
vt 0.051461 0.998008
vt 0.084363 0.998008
vt 0.084363 0.001992
vt 0.090479 0.001992
vt 0.090479 0.998008
vt 0.095550 0.998008
vt 0.095550 0.001992
vt 0.098801 0.001992
vt 0.098801 0.998008
vt 0.037023 0.998008
vt 0.037023 0.001992
vt 0.040275 0.001992
vt 0.040275 0.998008
vt 0.079292 0.001992
vt 0.079292 0.998008
vt 0.076041 0.998008
vt 0.076041 0.001992
vt 0.059783 0.001992
vt 0.059783 0.998008
vt 0.056532 0.998008
vt 0.056532 0.001992
vt 0.196506 0.867078
vt 0.178073 0.861170
vt 0.166255 0.849351
vt 0.160347 0.830613
vt 0.160347 0.808995
vt 0.166255 0.790255
vt 0.178073 0.778437
vt 0.196506 0.772528
vt 0.218735 0.772528
vt 0.237168 0.778437
vt 0.248987 0.790255
vt 0.254895 0.808995
vt 0.254895 0.830613
vt 0.248987 0.849351
vt 0.237168 0.861170
vt 0.218735 0.867078
vt 0.239710 0.903936
vt 0.245618 0.885502
vt 0.257437 0.873683
vt 0.276176 0.867775
vt 0.297794 0.867775
vt 0.316534 0.873683
vt 0.328352 0.885502
vt 0.334260 0.903936
vt 0.334260 0.926165
vt 0.328352 0.944599
vt 0.316534 0.956417
vt 0.297794 0.962325
vt 0.276176 0.962325
vt 0.257437 0.956417
vt 0.245618 0.944599
vt 0.239710 0.926165
vt 0.020766 0.001992
vt 0.020766 0.998008
vn 0.000000 0.000000 1.000000
vn 0.000000 0.000000 1.000000
vn 0.000000 0.000000 1.000000
vn 0.000000 0.000000 1.000000
vn 0.707107 0.707107 0.000000
vn 0.707107 0.707107 0.000000
vn 0.707107 0.707107 0.000000
vn 0.707107 0.707107 0.000000
vn 0.000000 0.000000 -1.000000
vn 0.000000 0.000000 -1.000000
vn 0.000000 0.000000 -1.000000
vn 0.000000 0.000000 -1.000000
vn -0.707107 -0.707107 0.000000
vn -0.707107 -0.707107 0.000000
vn -0.707107 -0.707107 0.000000
vn -0.707107 -0.707107 0.000000
vn 0.707107 -0.707107 0.000000
vn 0.707107 -0.707107 0.000000
vn 0.707107 -0.707107 0.000000
vn 0.707107 -0.707107 0.000000
vn -0.707107 0.707107 0.000000
vn -0.707107 0.707107 0.000000
vn -0.707107 0.707107 0.000000
vn -0.707107 0.707107 0.000000
vn -0.144841 0.000000 0.989455
vn -0.144841 0.000000 0.989455
vn 0.144841 0.000000 0.989455
vn 0.144841 0.000000 0.989455
vn -0.144841 0.000000 -0.989455
vn -0.144841 0.000000 -0.989455
vn 0.144841 0.000000 -0.989455
vn 0.144841 0.000000 -0.989455
vn 0.989609 0.000000 0.143784
vn 0.989609 0.000000 0.143784
vn 0.989609 0.000000 -0.143784
vn 0.989609 0.000000 -0.143784
vn -0.989609 0.000000 -0.143784
vn -0.989609 0.000000 -0.143784
vn -0.989609 0.000000 0.143784
vn -0.989609 0.000000 0.143784
vn -0.862787 0.000000 0.505567
vn -0.862787 0.000000 0.505567
vn -0.501780 0.000000 0.864995
vn -0.501780 0.000000 0.864995
vn 0.501780 0.000000 0.864995
vn 0.501780 0.000000 0.864995
vn 0.862787 0.000000 0.505567
vn 0.862787 0.000000 0.505567
vn -0.862787 0.000000 -0.505567
vn -0.862787 0.000000 -0.505567
vn -0.501780 0.000000 -0.864995
vn -0.501780 0.000000 -0.864995
vn 0.501780 0.000000 -0.864995
vn 0.501780 0.000000 -0.864995
vn 0.862787 0.000000 -0.505567
vn 0.862787 0.000000 -0.505567
vn 0.000000 1.000000 0.000000
vn 0.000000 1.000000 0.000000
vn 0.000000 1.000000 0.000000
vn 0.000000 1.000000 0.000000
vn 0.000000 1.000000 0.000000
vn 0.000000 1.000000 0.000000
vn 0.000000 1.000000 0.000000
vn 0.000000 1.000000 0.000000
vn 0.000000 1.000000 0.000000
vn 0.000000 1.000000 0.000000
vn 0.000000 1.000000 0.000000
vn 0.000000 1.000000 0.000000
vn 0.000000 1.000000 0.000000
vn 0.000000 1.000000 0.000000
vn 0.000000 1.000000 0.000000
vn 0.000000 1.000000 0.000000
vn 0.000000 -1.000000 -0.000000
vn 0.000000 -1.000000 -0.000000
vn 0.000000 -1.000000 -0.000000
vn 0.000000 -1.000000 -0.000000
vn 0.000000 -1.000000 -0.000000
vn 0.000000 -1.000000 -0.000000
vn 0.000000 -1.000000 -0.000000
vn 0.000000 -1.000000 -0.000000
vn 0.000000 -1.000000 -0.000000
vn 0.000000 -1.000000 -0.000000
vn 0.000000 -1.000000 -0.000000
vn 0.000000 -1.000000 -0.000000
vn 0.000000 -1.000000 -0.000000
vn 0.000000 -1.000000 -0.000000
vn 0.000000 -1.000000 -0.000000
vn 0.000000 -1.000000 -0.000000
vn -0.989609 0.000000 0.143784
vn -0.862787 0.000000 0.505567
vn -0.862787 0.000000 0.505567
vn -0.989609 0.000000 0.143784
vn -0.501780 0.000000 0.864995
vn -0.144841 0.000000 0.989455
vn -0.144841 0.000000 0.989455
vn -0.501780 0.000000 0.864995
vn 0.144841 0.000000 0.989455
vn 0.501780 0.000000 0.864995
vn 0.501780 0.000000 0.864995
vn 0.144841 0.000000 0.989455
vn 0.862787 0.000000 0.505567
vn 0.989609 0.000000 0.143784
vn 0.989609 0.000000 0.143784
vn 0.862787 0.000000 0.505567
vn -0.989609 0.000000 -0.143784
vn -0.862787 0.000000 -0.505567
vn -0.862787 0.000000 -0.505567
vn -0.989609 0.000000 -0.143784
vn -0.501780 0.000000 -0.864995
vn -0.144841 0.000000 -0.989455
vn -0.144841 0.000000 -0.989455
vn -0.501780 0.000000 -0.864995
vn 0.144841 0.000000 -0.989455
vn 0.501780 0.000000 -0.864995
vn 0.501780 0.000000 -0.864995
vn 0.144841 0.000000 -0.989455
vn 0.862787 0.000000 -0.505567
vn 0.989609 0.000000 -0.143784
vn 0.989609 0.000000 -0.143784
vn 0.862787 0.000000 -0.505567
s off
g pCube2
usemtl initialShadingGroup
f 1/1/1 2/2/2 4/3/3 3/4/4
f 3/15/5 4/12/6 6/11/7 5/16/8
f 5/5/9 6/6/10 8/7/11 7/8/12
f 7/17/13 8/10/14 2/9/15 1/18/16
f 2/9/17 8/10/18 6/11/19 4/12/20
f 7/13/21 1/14/22 3/15/23 5/16/24
f 15/19/25 14/20/26 17/21/27 20/22/28
f 31/23/29 30/24/30 33/25/31 36/26/32
f 23/27/33 22/28/34 39/29/35 38/30/36
f 25/31/37 28/32/38 9/33/39 12/34/40
f 11/35/41 10/36/42 13/37/43 16/38/44
f 19/39/45 18/40/46 21/41/47 24/42/48
f 27/43/49 26/44/50 29/45/51 32/46/52
f 35/47/53 34/48/54 37/49/55 40/50/56
f 12/51/57 11/52/58 16/53/59 15/54/60 20/55/61 19/56/62 24/57/63 23/58/64 38/59/65 37/60/66 34/61/67 33/62/68 30/63/69 29/64/70 26/65/71 25/66/72
f 28/67/73 27/68/74 32/69/75 31/70/76 36/71/77 35/72/78 40/73/79 39/74/80 22/75/81 21/76/82 18/77/83 17/78/84 14/79/85 13/80/86 10/81/87 9/82/88
f 9/33/89 10/36/90 11/35/91 12/34/92
f 13/83/93 14/20/94 15/19/95 16/84/96
f 17/21/97 18/40/98 19/39/99 20/22/100
f 21/41/101 22/28/102 23/27/103 24/42/104
f 25/31/105 26/44/106 27/43/107 28/32/108
f 29/45/109 30/24/110 31/23/111 32/46/112
f 33/25/113 34/48/114 35/47/115 36/26/116
f 37/49/117 38/30/118 39/29/119 40/50/120
