# This file uses centimeters as units for non-parametric coordinates.

mtllib Rock2_LOD_Low_Poly.mtl
g default
v -0.141726 -1.648975 -1.570308
v -1.804271 -1.271400 0.213297
v 1.101391 -0.468944 1.160905
v 0.849297 -0.997860 1.817251
v -2.007763 -1.533349 0.790670
v -0.696209 1.288405 0.933018
v -0.944223 0.912049 0.551570
v 0.456628 -1.242435 -2.471306
v -0.796141 -1.590798 -0.175924
v 0.025418 -1.615614 -0.669579
v -0.246918 -1.632332 -1.147944
v 0.497732 -1.644891 -2.292652
v 0.495581 -1.648310 -1.518452
v 0.550238 -1.622227 -0.784337
v 0.479677 -1.575132 0.364305
v -0.222002 -1.562281 0.442506
v -1.240744 -1.573556 0.306499
v -0.685987 -1.551209 0.616814
v -1.337243 -1.513294 1.133662
v -1.662894 -0.717272 0.140402
v -1.405226 -0.464853 -0.172496
v -1.384391 0.009124 -0.001776
v -1.176411 0.179604 -0.402736
v -1.033635 -0.430248 -0.840719
v -0.769564 -0.295500 -1.222254
v -0.453132 0.036081 -1.398160
v -0.134075 0.419811 -1.193486
v 0.079373 -0.865077 -2.215732
v 0.599387 -0.501720 -1.447831
v 0.856588 -1.309741 -1.197248
v 0.964544 -1.275477 -0.827974
v 0.753364 -1.560421 0.713554
v 0.828159 -1.545619 1.081202
v 0.405148 -1.523611 1.663606
v -0.574131 -1.517563 1.339995
v -0.689351 -1.507595 1.574158
v -1.823813 -0.910737 0.677729
v -1.285398 0.403439 0.538189
v -1.044422 0.700067 -0.214777
v -0.202202 1.088528 -0.169745
v 0.408601 0.287004 -1.369526
v 0.690289 0.540092 -0.454246
v 0.853761 -0.225383 -1.064709
v 1.026493 -0.068944 -0.674800
v 1.022943 -0.329863 -0.762572
v 1.273938 -0.606835 -0.031185
v 1.234226 -0.931810 0.699921
v 1.056136 -1.397649 -0.095913
v 1.199764 -1.400365 1.058017
v 0.531375 -1.517796 1.890229
v -1.446571 -0.639380 0.970301
v -0.575212 -0.287966 1.463403
v -1.135498 0.313440 0.976581
v -0.676323 0.683885 1.605632
v -0.643048 1.166931 1.563222
v -0.204183 1.864254 1.596843
v -0.441613 1.499438 0.428277
v 0.333344 1.548849 0.539252
v 0.419863 0.855794 -0.295625
v 0.949510 0.593852 0.733154
v 0.987435 0.317047 -0.114257
v 1.092824 0.008500 0.574301
v 0.902863 0.006415 1.213750
v 0.481646 -0.335395 1.681569
v -0.369689 0.515017 1.811873
v -0.328407 1.685321 2.343823
v 0.065132 0.528469 1.803443
v 0.064006 2.053774 2.449212
v 0.493606 0.806657 1.501200
v 0.567070 1.537739 1.757282
v 0.392105 1.305616 2.324062
v 0.416910 1.955583 1.949152
v 0.207546 1.809288 1.194040
v 0.720077 1.219184 0.435768
v 0.780691 0.950150 1.157445
v -0.092376 -0.486961 1.605466
v -0.707047 -0.986638 1.622462
v -0.613685 0.915903 -0.180896
v -1.137874 -1.600761 -0.444642
v -1.313036 -1.240931 -0.686112
v -0.854510 -1.426284 -1.155224
v -0.466345 -1.249561 -1.827319
v 0.226459 -1.667483 -2.246675
vt 0.122480 0.489940
vt 0.449680 0.120490
vt 0.458450 0.938190
vt 0.976730 0.533490
vt 0.612460 0.734720
vt 0.661090 0.680110
vt 0.559550 0.234040
vt 0.914560 0.514110
vt 0.228160 0.514750
vt 0.234580 0.108850
vt 0.332720 0.175030
vt 0.384370 0.122450
vt 0.346890 0.069010
vt 0.768850 0.249290
vt 0.539160 0.191550
vt 0.452560 0.198280
vt 0.363730 0.229640
vt 0.228280 0.279330
vt 0.187930 0.206310
vt 0.155080 0.085060
vt 0.145790 0.164500
vt 0.054310 0.119070
vt 0.059400 0.025340
vt 0.849450 0.543430
vt 0.797820 0.519810
vt 0.759700 0.571040
vt 0.716170 0.536710
vt 0.739860 0.444300
vt 0.691100 0.414920
vt 0.635490 0.422510
vt 0.587780 0.461470
vt 0.598080 0.279980
vt 0.504910 0.348000
vt 0.427890 0.274370
vt 0.389650 0.299480
vt 0.201880 0.328690
vt 0.166610 0.358760
vt 0.082100 0.354950
vt 0.067850 0.218850
vt 0.035970 0.218420
vt 0.964600 0.737970
vt 0.900830 0.598870
vt 0.733430 0.656270
vt 0.667420 0.586140
vt 0.559280 0.597290
vt 0.538210 0.427590
vt 0.466030 0.511310
vt 0.466510 0.395980
vt 0.431810 0.435020
vt 0.426920 0.403320
vt 0.338120 0.421470
vt 0.250650 0.434150
vt 0.306070 0.328270
vt 0.192620 0.404230
vt 0.066390 0.387690
vt 0.005330 0.269190
vt 0.972820 0.906210
vt 0.869670 0.667210
vt 0.825280 0.804670
vt 0.748220 0.712210
vt 0.692900 0.813940
vt 0.627040 0.808490
vt 0.509420 0.812130
vt 0.564270 0.681660
vt 0.471320 0.674720
vt 0.493070 0.554330
vt 0.343570 0.600520
vt 0.405420 0.510170
vt 0.317250 0.528160
vt 0.250260 0.579290
vt 0.158570 0.594290
vt 0.145060 0.649060
vt 0.182660 0.710570
vt 0.715070 0.861750
vt 0.541500 0.899160
vt 0.551140 0.972840
vt 0.218230 0.728880
vt 0.688560 0.918630
vt 0.458450 0.938190
vt 0.292470 0.705400
vt 0.375940 0.783980
vt 0.312660 0.834910
vt 0.415910 0.833870
vt 0.463270 0.754710
vt 0.425700 0.632830
vt 0.341660 0.673660
vt 0.857700 0.866420
vt 0.932190 0.909590
vt 0.919460 0.787570
vt 0.612280 0.594900
vt 0.884080 0.436670
vt 0.099550 0.018910
vt 0.249050 0.056790
vt 0.833330 0.400720
vt 0.789140 0.311330
vt 0.689160 0.264200
vt 0.558800 0.165210
vn -0.004755 -0.999259 0.038193
vn -0.004755 -0.999259 0.038193
vn -0.004755 -0.999259 0.038193
vn -0.001857 -0.999363 0.035645
vn -0.001857 -0.999363 0.035645
vn -0.001857 -0.999363 0.035645
vn -0.001132 -0.999642 0.026737
vn -0.001132 -0.999642 0.026737
vn -0.001132 -0.999642 0.026737
vn -0.992151 0.076995 0.098534
vn -0.992151 0.076995 0.098534
vn -0.992151 0.076995 0.098534
vn -0.839812 0.391188 0.376415
vn -0.839812 0.391188 0.376415
vn -0.839812 0.391188 0.376415
vn -0.837607 0.518925 0.170680
vn -0.837607 0.518925 0.170680
vn -0.837607 0.518925 0.170680
vn -0.830302 0.557226 -0.009932
vn -0.830302 0.557226 -0.009932
vn -0.830302 0.557226 -0.009932
vn 0.493002 0.428667 0.757096
vn 0.493002 0.428667 0.757096
vn 0.493002 0.428668 0.757096
vn 0.835326 0.098141 -0.540925
vn 0.861917 0.076055 -0.501313
vn 0.894474 0.045459 -0.444802
vn 0.960048 -0.040136 -0.276942
vn 0.856887 -0.083513 -0.508695
vn 0.856887 -0.083513 -0.508695
vn 0.856887 -0.083513 -0.508695
vn -0.948025 0.210480 -0.238634
vn -0.948025 0.210480 -0.238634
vn -0.948025 0.210480 -0.238634
vn -0.001602 -0.998868 0.047547
vn -0.001602 -0.998868 0.047547
vn -0.001602 -0.998868 0.047547
vn -0.006855 -0.999223 0.038822
vn -0.004155 -0.999177 0.040346
vn -0.005891 -0.999208 0.039366
vn -0.003076 -0.999156 0.040954
vn -0.298595 -0.892445 -0.338204
vn -0.298595 -0.892445 -0.338204
vn -0.298595 -0.892445 -0.338204
vn -0.320410 -0.946325 -0.042509
vn -0.320410 -0.946325 -0.042509
vn -0.320410 -0.946325 -0.042509
vn -0.623849 -0.712991 -0.320088
vn -0.623849 -0.712991 -0.320088
vn -0.623849 -0.712991 -0.320088
vn 0.082292 -0.996600 -0.004174
vn 0.082292 -0.996600 -0.004174
vn 0.082292 -0.996600 -0.004174
vn 0.640419 -0.767755 -0.020403
vn 0.640419 -0.767755 -0.020403
vn 0.640419 -0.767755 -0.020403
vn 0.001323 -0.999156 0.041048
vn 0.001323 -0.999156 0.041048
vn 0.001323 -0.999156 0.041048
vn -0.003682 -0.999163 0.040741
vn -0.003682 -0.999163 0.040741
vn -0.003682 -0.999163 0.040741
vn -0.013284 -0.998901 0.044950
vn -0.013284 -0.998901 0.044950
vn -0.013284 -0.998901 0.044950
vn -0.004843 -0.998710 0.050549
vn -0.004843 -0.998710 0.050549
vn -0.004843 -0.998710 0.050549
vn -0.006028 -0.998858 0.047404
vn -0.006028 -0.998858 0.047404
vn -0.006028 -0.998858 0.047404
vn -0.402040 -0.516633 0.755945
vn -0.402040 -0.516633 0.755945
vn -0.402040 -0.516633 0.755945
vn -0.018942 -0.998600 0.049388
vn -0.018942 -0.998600 0.049388
vn -0.018942 -0.998600 0.049388
vn -0.184408 -0.969533 -0.161241
vn -0.184408 -0.969533 -0.161241
vn -0.184408 -0.969533 -0.161241
vn 0.203457 -0.916606 -0.344148
vn 0.203457 -0.916606 -0.344148
vn 0.203457 -0.916606 -0.344148
vn -0.949486 0.244943 -0.196160
vn -0.949486 0.244943 -0.196160
vn -0.949486 0.244943 -0.196160
vn -0.920827 0.361812 -0.145498
vn -0.920827 0.361812 -0.145498
vn -0.920827 0.361812 -0.145498
vn -0.935875 0.343328 -0.079143
vn -0.935875 0.343328 -0.079143
vn -0.935875 0.343328 -0.079143
vn -0.902377 0.180601 -0.391278
vn -0.902377 0.180601 -0.391278
vn -0.902377 0.180601 -0.391278
vn -0.886321 0.338781 -0.315695
vn -0.886321 0.338781 -0.315695
vn -0.886321 0.338781 -0.315695
vn -0.720992 0.380988 -0.578808
vn -0.720992 0.380988 -0.578808
vn -0.720992 0.380988 -0.578808
vn -0.717129 0.390369 -0.577354
vn -0.717129 0.390369 -0.577354
vn -0.717129 0.390369 -0.577354
vn -0.303825 0.021072 -0.952495
vn -0.303825 0.021072 -0.952495
vn -0.303825 0.021072 -0.952495
vn 0.516596 0.583990 -0.626166
vn 0.516596 0.583990 -0.626166
vn 0.516596 0.583990 -0.626166
vn 0.343579 0.737373 -0.581579
vn 0.343579 0.737373 -0.581579
vn 0.343579 0.737373 -0.581579
vn 0.952912 -0.036322 -0.301063
vn 0.952912 -0.036322 -0.301063
vn 0.952912 -0.036322 -0.301063
vn 0.746742 -0.645985 -0.158367
vn 0.746742 -0.645985 -0.158367
vn 0.746742 -0.645985 -0.158367
vn 0.067327 -0.982719 -0.172428
vn 0.067327 -0.982719 -0.172428
vn 0.067327 -0.982719 -0.172428
vn 0.637459 -0.768538 -0.054733
vn 0.637459 -0.768538 -0.054733
vn 0.637459 -0.768538 -0.054733
vn -0.012508 -0.998576 0.051862
vn -0.012508 -0.998576 0.051862
vn -0.012508 -0.998576 0.051862
vn -0.010754 -0.998904 0.045552
vn -0.010754 -0.998904 0.045552
vn -0.010754 -0.998904 0.045552
vn -0.016917 -0.999328 0.032519
vn -0.016917 -0.999328 0.032519
vn -0.016917 -0.999328 0.032519
vn -0.015086 -0.999269 0.035116
vn -0.015086 -0.999269 0.035116
vn -0.015086 -0.999269 0.035116
vn -0.443249 0.285119 0.849845
vn -0.443249 0.285119 0.849845
vn -0.443249 0.285119 0.849845
vn -0.719259 0.357905 0.595458
vn -0.719259 0.357905 0.595458
vn -0.719259 0.357905 0.595458
vn -0.886789 0.287128 0.362165
vn -0.886789 0.287128 0.362165
vn -0.886789 0.287128 0.362165
vn -0.829036 0.557319 -0.045767
vn -0.874397 0.476376 -0.092171
vn -0.871755 0.481752 -0.089208
vn -0.904943 0.405192 -0.129990
vn -0.327446 0.744751 -0.581485
vn -0.352995 0.735568 -0.578217
vn -0.425781 0.705737 -0.566256
vn -0.467458 0.686044 -0.557519
vn -0.314825 0.784913 -0.533663
vn -0.314825 0.784913 -0.533663
vn -0.314825 0.784913 -0.533663
vn 0.028109 0.837738 -0.545348
vn 0.028109 0.837738 -0.545348
vn 0.028109 0.837739 -0.545348
vn 0.720657 0.238934 -0.650818
vn 0.720657 0.238934 -0.650818
vn 0.720657 0.238934 -0.650818
vn 0.798548 0.470221 -0.375785
vn 0.798548 0.470221 -0.375785
vn 0.798548 0.470221 -0.375785
vn 0.659486 0.549726 -0.512717
vn 0.659486 0.549726 -0.512717
vn 0.659486 0.549726 -0.512717
vn 0.883760 0.138353 -0.447020
vn 0.883760 0.138353 -0.447020
vn 0.883760 0.138353 -0.447020
vn 0.951897 0.085986 -0.294107
vn 0.951897 0.085986 -0.294107
vn 0.951897 0.085986 -0.294107
vn 0.895889 -0.214915 -0.388836
vn 0.895889 -0.214915 -0.388836
vn 0.895889 -0.214915 -0.388836
vn 0.963483 -0.260176 -0.063312
vn 0.974125 -0.203132 -0.099084
vn 0.969915 -0.228817 -0.083107
vn 0.978632 -0.165368 -0.122198
vn 0.332285 -0.761194 0.556929
vn 0.332285 -0.761194 0.556929
vn 0.332285 -0.761194 0.556929
vn 0.827729 -0.461281 0.319508
vn 0.827729 -0.461281 0.319508
vn 0.827729 -0.461281 0.319508
vn -0.250219 -0.097812 0.963236
vn -0.250219 -0.097812 0.963236
vn -0.250219 -0.097812 0.963236
vn -0.559113 -0.095357 0.823590
vn -0.559113 -0.095357 0.823590
vn -0.559113 -0.095357 0.823590
vn -0.642352 0.059461 0.764100
vn -0.642352 0.059461 0.764100
vn -0.642352 0.059461 0.764100
vn -0.556261 0.282852 0.781389
vn -0.616414 0.141877 0.774535
vn -0.568394 0.257239 0.781509
vn -0.641635 0.068313 0.763962
vn -0.536303 0.169641 0.826802
vn -0.536303 0.169641 0.826802
vn -0.536303 0.169641 0.826802
vn -0.943350 0.092947 0.318516
vn -0.943350 0.092947 0.318516
vn -0.943350 0.092947 0.318516
vn -0.845982 0.533052 -0.013000
vn -0.845983 0.533052 -0.013000
vn -0.845982 0.533052 -0.013000
vn -0.691529 0.720058 0.057481
vn -0.691529 0.720058 0.057481
vn -0.691529 0.720058 0.057481
vn -0.006149 0.928773 -0.370597
vn -0.006149 0.928773 -0.370597
vn -0.006149 0.928773 -0.370597
vn 0.458136 0.706690 -0.539167
vn 0.458136 0.706690 -0.539166
vn 0.458136 0.706690 -0.539166
vn 0.485204 0.687248 -0.540617
vn 0.485204 0.687248 -0.540617
vn 0.485204 0.687248 -0.540617
vn 0.793937 0.470258 -0.385384
vn 0.793937 0.470258 -0.385384
vn 0.793937 0.470258 -0.385384
vn 0.946131 0.317890 -0.061494
vn 0.946131 0.317890 -0.061494
vn 0.946131 0.317890 -0.061494
vn 0.950395 0.283148 -0.128755
vn 0.950394 0.283148 -0.128755
vn 0.950395 0.283148 -0.128755
vn 0.968239 0.247211 -0.037418
vn 0.968239 0.247211 -0.037418
vn 0.968239 0.247211 -0.037418
vn 0.955390 0.295012 -0.014032
vn 0.955390 0.295012 -0.014032
vn 0.955390 0.295012 -0.014032
vn 0.978383 0.163964 0.126026
vn 0.978383 0.163964 0.126026
vn 0.978383 0.163964 0.126026
vn 0.979470 0.163116 0.118456
vn 0.979470 0.163116 0.118456
vn 0.979470 0.163116 0.118456
vn 0.976439 0.081035 0.199999
vn 0.976439 0.081035 0.199999
vn 0.976439 0.081035 0.199999
vn 0.899181 0.345712 0.268246
vn 0.899181 0.345712 0.268246
vn 0.899181 0.345712 0.268246
vn 0.946821 0.155344 0.281778
vn 0.946821 0.155344 0.281778
vn 0.946821 0.155344 0.281778
vn 0.954715 0.139279 0.262907
vn 0.954715 0.139279 0.262907
vn 0.954715 0.139279 0.262907
vn 0.732182 0.134620 0.667673
vn 0.732182 0.134620 0.667672
vn 0.732182 0.134620 0.667672
vn 0.700031 0.104243 0.706463
vn 0.700031 0.104243 0.706463
vn 0.700031 0.104243 0.706463
vn 0.514576 0.128502 0.847761
vn 0.514576 0.128502 0.847761
vn 0.514576 0.128502 0.847761
vn -0.082911 -0.178301 0.980477
vn -0.082911 -0.178301 0.980477
vn -0.082911 -0.178301 0.980477
vn 0.025044 -0.195046 0.980474
vn 0.025044 -0.195046 0.980474
vn 0.025044 -0.195046 0.980474
vn -0.640452 -0.298960 0.707421
vn -0.640452 -0.298960 0.707421
vn -0.640452 -0.298960 0.707421
vn 0.686009 -0.581550 0.437254
vn 0.686009 -0.581550 0.437254
vn 0.686009 -0.581550 0.437254
vn 0.030458 -0.414497 0.909541
vn 0.030458 -0.414497 0.909541
vn 0.030458 -0.414497 0.909541
vn -0.226700 -0.474442 0.850595
vn -0.226700 -0.474442 0.850595
vn -0.226700 -0.474442 0.850595
vn -0.077187 -0.197328 0.977294
vn -0.077187 -0.197328 0.977294
vn -0.077187 -0.197328 0.977294
vn 0.791447 -0.271375 0.547693
vn 0.791447 -0.271375 0.547693
vn 0.791447 -0.271375 0.547693
vn 0.958692 -0.174908 0.224314
vn 0.958692 -0.174908 0.224315
vn 0.958692 -0.174908 0.224314
vn 0.863882 0.312809 0.394790
vn 0.863882 0.312809 0.394790
vn 0.863882 0.312809 0.394790
vn 0.819549 0.031805 0.572126
vn 0.819549 0.031805 0.572126
vn 0.819549 0.031805 0.572126
vn -0.024895 0.977490 -0.209507
vn -0.024895 0.977490 -0.209507
vn -0.024895 0.977490 -0.209507
vn -0.043332 0.982998 -0.178431
vn -0.043332 0.982998 -0.178431
vn -0.043332 0.982998 -0.178431
vn -0.136699 0.953165 -0.269795
vn -0.136699 0.953165 -0.269795
vn -0.136699 0.953165 -0.269795
vn 0.606871 0.771673 -0.190337
vn 0.606871 0.771673 -0.190337
vn 0.606871 0.771673 -0.190337
vn 0.826993 0.545990 0.134079
vn 0.826993 0.545990 0.134079
vn 0.826993 0.545990 0.134079
vn 0.927657 0.368661 0.059518
vn 0.927657 0.368661 0.059518
vn 0.927657 0.368661 0.059518
vn 0.942075 0.335328 0.007023
vn 0.942075 0.335328 0.007023
vn 0.942075 0.335328 0.007023
vn 0.781667 0.535110 -0.320398
vn 0.781667 0.535110 -0.320398
vn 0.781667 0.535110 -0.320398
vn -0.744751 -0.171854 0.644835
vn -0.744751 -0.171854 0.644835
vn -0.744751 -0.171854 0.644835
vn -0.614410 -0.176464 0.769000
vn -0.614410 -0.176464 0.769000
vn -0.614410 -0.176464 0.769000
vn -0.377014 -0.285830 0.881000
vn -0.377014 -0.285830 0.881000
vn -0.377014 -0.285830 0.881000
vn -0.197301 0.274715 0.941065
vn -0.197301 0.274715 0.941065
vn -0.197301 0.274715 0.941065
vn -0.054358 0.171312 0.983716
vn -0.054358 0.171312 0.983716
vn -0.054358 0.171312 0.983716
vn -0.139691 0.166382 0.976117
vn -0.139691 0.166382 0.976117
vn -0.139691 0.166382 0.976117
vn -0.176996 0.250107 0.951903
vn -0.176996 0.250107 0.951903
vn -0.176996 0.250107 0.951903
vn 0.775317 0.544116 -0.320657
vn 0.775317 0.544116 -0.320657
vn 0.775317 0.544116 -0.320657
vn 0.027153 0.828927 -0.558697
vn 0.089577 0.803096 -0.589078
vn 0.112759 0.792322 -0.599593
vn 0.161605 0.767485 -0.620364
vn -0.289803 0.730723 -0.618109
vn -0.289803 0.730723 -0.618109
vn -0.289803 0.730723 -0.618109
vn -0.845937 0.483753 -0.224442
vn -0.845937 0.483753 -0.224442
vn -0.845937 0.483753 -0.224442
vn -0.641305 0.712131 -0.285653
vn -0.641305 0.712131 -0.285653
vn -0.641305 0.712130 -0.285653
vn -0.716361 0.694093 -0.071139
vn -0.716361 0.694093 -0.071139
vn -0.716361 0.694093 -0.071139
vn -0.428065 0.883867 -0.188521
vn -0.428065 0.883867 -0.188521
vn -0.428065 0.883867 -0.188521
vn 0.228892 0.859246 -0.457499
vn 0.228892 0.859246 -0.457498
vn 0.228892 0.859246 -0.457498
vn 0.599845 0.704445 -0.379398
vn 0.599845 0.704445 -0.379398
vn 0.599845 0.704445 -0.379398
vn -0.017399 -0.999271 0.033977
vn -0.017399 -0.999271 0.033977
vn -0.017399 -0.999271 0.033977
vn -0.017514 -0.999220 0.035391
vn -0.017514 -0.999220 0.035391
vn -0.017514 -0.999220 0.035391
vn 0.002658 -0.999209 0.039689
vn 0.002658 -0.999209 0.039689
vn 0.002658 -0.999209 0.039689
vn -0.009449 -0.999478 0.030907
vn -0.009449 -0.999478 0.030907
vn -0.009449 -0.999478 0.030907
vn 0.385282 -0.921876 -0.041266
vn 0.385282 -0.921876 -0.041266
vn 0.385282 -0.921876 -0.041266
vn 0.361101 -0.931335 -0.047138
vn 0.361101 -0.931335 -0.047138
vn 0.361101 -0.931335 -0.047138
vn 0.989818 -0.051964 -0.132515
vn 0.989818 -0.051964 -0.132515
vn 0.989818 -0.051964 -0.132515
vn -0.834996 0.407956 0.369261
vn -0.834996 0.407956 0.369261
vn -0.834996 0.407956 0.369261
vn 0.684699 -0.728825 -0.001318
vn 0.684699 -0.728825 -0.001318
vn 0.684699 -0.728825 -0.001318
vn -0.614082 -0.082295 -0.784940
vn -0.614082 -0.082295 -0.784940
vn -0.614082 -0.082295 -0.784940
vn -0.205594 0.588147 -0.782186
vn -0.205594 0.588147 -0.782186
vn -0.205594 0.588146 -0.782186
vn -0.659000 0.253154 -0.708260
vn -0.666264 0.239031 -0.706369
vn -0.662675 0.246057 -0.707331
vn -0.668153 0.235292 -0.705840
vn -0.832849 0.082421 -0.547330
vn -0.832849 0.082421 -0.547330
vn -0.832849 0.082421 -0.547330
vn -0.837420 0.175651 -0.517567
vn -0.837420 0.175651 -0.517567
vn -0.837420 0.175651 -0.517567
vn -0.859524 0.207125 -0.467246
vn -0.859524 0.207125 -0.467246
vn -0.859524 0.207125 -0.467246
vn -0.834374 0.231838 -0.500072
vn -0.834374 0.231838 -0.500072
vn -0.834374 0.231838 -0.500072
vn -0.868577 0.138389 -0.475839
vn -0.868577 0.138389 -0.475839
vn -0.868577 0.138389 -0.475839
vn -0.868604 0.159914 -0.468993
vn -0.868604 0.159914 -0.468993
vn -0.868604 0.159914 -0.468993
vn -0.691069 -0.603415 -0.397886
vn -0.691069 -0.603415 -0.397886
vn -0.691069 -0.603415 -0.397886
vn -0.468169 -0.883054 -0.032135
vn -0.468169 -0.883054 -0.032135
vn -0.468169 -0.883054 -0.032135
vn 0.000608 -0.999342 0.036277
vn 0.000608 -0.999342 0.036277
vn 0.000608 -0.999342 0.036277
vn -0.503838 -0.718256 -0.479850
vn -0.503838 -0.718256 -0.479850
vn -0.503838 -0.718256 -0.479850
vn -0.118651 -0.412963 -0.902986
vn -0.118651 -0.412963 -0.902986
vn -0.118651 -0.412963 -0.902986
vn -0.546309 -0.067948 -0.834823
vn -0.546309 -0.067948 -0.834823
vn -0.546309 -0.067948 -0.834823
vn -0.866181 0.002021 -0.499727
vn -0.823474 0.030790 -0.566518
vn -0.795800 0.047506 -0.603693
vn -0.691042 0.101689 -0.715626
vn -0.674061 -0.608830 -0.418292
vn -0.674061 -0.608830 -0.418292
vn -0.674061 -0.608830 -0.418292
vn 0.935888 0.210234 -0.282693
vn 0.935888 0.210234 -0.282693
vn 0.935888 0.210234 -0.282693
vn -0.832617 0.219720 -0.508401
vn -0.832618 0.219720 -0.508401
vn -0.832617 0.219720 -0.508401
vn 0.013373 -0.998757 0.048020
vn 0.013373 -0.998757 0.048020
vn 0.013373 -0.998757 0.048020
vn -0.004407 -0.999290 0.037432
vn -0.004407 -0.999290 0.037432
vn -0.004407 -0.999290 0.037432
vn 0.917086 0.053212 0.395122
vn 0.917086 0.053212 0.395122
vn 0.917086 0.053212 0.395122
vn 0.801708 0.275878 0.530242
vn 0.801708 0.275878 0.530242
vn 0.801707 0.275878 0.530242
s off
g Rock2_Low_Poly:ZBrush_defualt_group
usemtl Rock2_Low_Poly:defaultMat
f 1/2/1 14/17/2 11/12/3
f 1/2/4 13/16/5 14/17/6
f 1/2/7 83/97/8 13/16/9
f 6/5/10 54/61/11 55/62/12
f 38/43/13 54/61/14 6/5/15
f 6/5/16 55/62/17 56/63/18
f 6/5/19 7/6/20 38/43/21
f 63/70/22 64/71/23 4/1/24
s 1
f 29/33/25 45/50/26 30/34/27
f 30/34/27 45/50/26 31/35/28
s off
f 29/33/29 43/48/30 45/50/31
f 2/8/32 5/4/33 20/24/34
f 9/10/35 10/11/36 16/19/37
s 2
f 10/11/38 9/10/39 11/12/40
f 11/12/40 9/10/39 79/93/41
s off
f 11/12/42 79/93/43 81/13/44
f 81/13/45 1/2/46 11/12/47
f 83/97/48 1/14/49 82/96/50
f 12/15/51 13/16/52 83/97/53
f 31/35/54 14/17/55 13/16/56
f 14/17/57 32/36/58 15/18/59
f 14/17/60 15/18/61 10/11/62
f 16/19/63 10/11/64 15/18/65
f 16/19/66 18/21/67 9/10/68
f 16/19/69 35/39/70 18/21/71
f 18/21/72 2/92/73 17/20/74
f 19/22/75 18/21/76 35/39/77
f 19/22/78 2/92/79 18/21/80
f 19/22/81 5/23/82 2/92/83
f 5/4/84 37/42/85 20/24/86
f 20/24/87 37/42/88 38/43/89
f 38/43/90 22/26/91 20/24/92
f 22/26/93 23/27/94 21/25/95
f 22/26/96 39/44/97 23/27/98
f 26/30/99 25/29/100 23/27/101
f 23/27/102 39/44/103 26/30/104
f 29/33/105 27/31/106 41/46/107
f 29/33/108 28/32/109 27/31/110
f 29/33/111 8/7/112 28/32/113
f 8/7/114 30/34/115 12/15/116
f 30/34/117 31/35/118 13/16/119
f 32/36/120 31/35/121 48/53/122
f 31/35/123 32/36/124 14/17/125
f 16/19/126 15/18/127 32/36/128
f 16/19/129 32/36/130 35/39/131
f 32/36/132 34/38/133 35/39/134
f 36/40/135 19/22/136 35/39/137
f 5/4/138 19/41/139 37/42/140
f 51/58/141 38/43/142 37/42/143
f 51/58/144 53/60/145 38/43/146
s 3
f 7/6/147 39/44/148 38/43/149
f 38/43/149 39/44/148 22/26/150
s 4
f 39/44/151 78/90/152 26/30/153
f 26/30/153 78/90/152 27/31/154
s off
f 78/90/155 40/45/156 27/31/157
f 27/31/158 40/45/159 41/46/160
f 43/48/161 29/33/162 41/46/163
f 43/48/164 41/46/165 42/47/166
f 42/47/167 44/49/168 43/48/169
f 43/48/170 44/49/171 45/50/172
f 44/49/173 46/51/174 45/50/175
f 46/51/176 48/53/177 45/50/178
s 5
f 46/51/179 47/52/180 48/53/181
f 48/53/181 47/52/180 49/54/182
s off
f 49/54/183 4/1/184 33/37/185
f 4/1/186 50/55/187 33/37/188
f 36/40/189 50/55/190 77/56/191
f 77/56/192 19/22/193 36/40/194
f 77/89/195 37/42/196 19/41/197
s 6
f 52/59/198 51/58/199 77/89/200
f 77/89/200 51/58/199 37/42/201
s off
f 51/58/202 52/59/203 53/60/204
f 55/62/205 54/61/206 66/75/207
f 66/75/208 56/63/209 55/62/210
f 66/75/211 68/3/212 56/63/213
f 73/84/214 58/65/215 57/64/216
f 59/66/217 58/65/218 74/85/219
f 74/85/220 42/47/221 59/66/222
f 42/47/223 74/85/224 61/68/225
f 74/85/226 60/67/227 61/68/228
f 46/51/229 44/49/230 61/68/231
f 60/67/232 62/69/233 61/68/234
f 61/68/235 62/69/236 46/51/237
f 47/52/238 46/51/239 62/69/240
f 62/69/241 3/9/242 47/52/243
f 47/52/244 3/9/245 49/54/246
f 3/9/247 62/69/248 63/70/249
f 63/70/250 62/69/251 60/67/252
f 63/70/253 60/67/254 75/86/255
f 75/86/256 69/80/257 63/70/258
f 63/70/259 69/80/260 64/71/261
f 69/80/262 67/77/263 64/71/264
f 67/77/265 76/72/266 64/71/267
f 76/72/268 67/77/269 65/73/270
f 65/74/271 66/75/272 54/61/273
f 67/77/274 69/80/275 71/82/276
f 67/78/277 66/75/278 65/74/279
f 67/78/280 71/76/281 66/75/282
f 66/75/283 71/76/284 68/79/285
f 69/80/286 75/86/287 70/81/288
f 69/80/289 70/81/290 71/82/291
f 71/82/292 70/81/293 68/3/294
f 70/81/295 72/83/296 68/3/297
f 56/63/298 68/3/299 72/83/300
f 72/83/301 73/84/302 56/63/303
f 56/63/304 73/84/305 57/64/306
f 73/84/307 74/85/308 58/65/309
f 74/85/310 73/84/311 75/86/312
f 74/85/313 75/86/314 60/67/315
f 75/86/316 72/83/317 70/81/318
f 75/86/319 73/84/320 72/83/321
f 52/59/322 54/61/323 53/60/324
f 54/61/325 52/59/326 65/74/327
f 76/87/328 65/74/329 52/59/330
f 76/87/331 77/89/332 64/88/333
f 64/71/334 50/55/335 4/1/336
f 50/57/337 64/88/338 77/89/339
f 77/89/340 76/87/341 52/59/342
f 42/47/343 61/68/344 44/49/345
s 7
f 57/64/346 58/65/347 40/45/348
f 40/45/348 58/65/347 59/66/349
s off
f 40/45/350 78/90/351 57/64/352
f 78/90/353 6/5/354 57/64/355
f 6/5/356 78/90/357 7/6/358
f 6/5/359 56/63/360 57/64/361
f 7/6/362 78/90/363 39/44/364
f 59/66/365 41/46/366 40/45/367
f 41/46/368 59/66/369 42/47/370
f 36/40/371 35/39/372 34/38/373
f 34/38/374 50/55/375 36/40/376
f 34/38/377 32/36/378 33/37/379
f 33/37/380 50/55/381 34/38/382
f 33/37/383 32/36/384 48/53/385
f 48/53/386 49/54/387 33/37/388
f 48/53/389 31/35/390 45/50/391
f 38/43/392 53/60/393 54/61/394
f 13/16/395 12/15/396 30/34/397
f 28/32/398 8/7/399 83/97/400
f 28/32/401 26/30/402 27/31/403
s 8
f 26/30/404 28/32/405 25/29/406
f 25/29/406 28/32/405 82/96/407
s off
f 24/28/408 25/29/409 82/96/410
f 24/28/411 23/27/412 25/29/413
f 21/25/414 24/28/415 80/94/416
f 80/94/417 20/24/418 21/25/419
f 24/28/420 21/25/421 23/27/422
f 20/24/423 80/94/424 2/8/425
f 80/94/426 79/91/427 2/8/428
f 79/93/429 17/20/430 2/92/431
f 79/93/432 9/10/433 17/20/434
f 81/95/435 82/96/436 1/14/437
f 83/97/438 8/7/439 12/15/440
f 83/97/441 82/96/442 28/32/443
s 9
f 82/96/444 81/95/445 24/28/446
f 24/28/446 81/95/445 80/94/447
s off
f 80/94/448 81/95/449 79/91/450
f 30/34/451 8/7/452 29/33/453
f 21/25/454 20/24/455 22/26/456
f 17/20/457 9/10/458 18/21/459
f 14/17/460 10/11/461 11/12/462
f 3/9/463 4/1/464 49/54/465
f 4/1/466 3/9/467 63/70/468
